<?xml version="1.0" encoding="UTF-8" standalone="no"?>
<!DOCTYPE svg PUBLIC "-//W3C//DTD SVG 1.1//EN"
 "http://www.w3.org/Graphics/SVG/1.1/DTD/svg11.dtd">
<!-- Generated by graphviz version 2.26.3 (20100126.1600)
 -->
<!-- Title: Grammar Pages: 1 -->
<svg width="957pt" height="860pt"
 viewBox="0.00 0.00 957.00 860.00" xmlns="http://www.w3.org/2000/svg" xmlns:xlink="http://www.w3.org/1999/xlink">
<g id="graph1" class="graph" transform="scale(1 1) rotate(0) translate(4 856)">
<title>Grammar</title>
<polygon fill="white" stroke="white" points="-4,5 -4,-856 954,-856 954,5 -4,5"/>
<!-- graph -->
<g id="node1" class="node"><title>graph</title>
<ellipse fill="none" stroke="black" cx="671" cy="-819" rx="32" ry="32.5"/>
<text text-anchor="middle" x="671" y="-813.9" font-family="Times,serif" font-size="14.00">graph</text>
</g>
<!-- stmt_list -->
<g id="node2" class="node"><title>stmt_list</title>
<ellipse fill="none" stroke="black" cx="489" cy="-717" rx="32" ry="32.5"/>
<text text-anchor="middle" x="489" y="-711.9" font-family="Times,serif" font-size="14.00">stmt_list</text>
</g>
<!-- graph&#45;&gt;stmt_list -->
<g id="edge12" class="edge"><title>graph&#45;&gt;stmt_list</title>
<path fill="none" stroke="black" d="M642.961,-803.286C611.566,-785.691 560.559,-757.104 525.935,-737.7"/>
<polygon fill="black" stroke="black" points="527.505,-734.568 517.071,-732.732 524.083,-740.674 527.505,-734.568"/>
</g>
<!-- id -->
<g id="node10" class="node"><title>id</title>
<ellipse fill="none" stroke="black" cx="278" cy="-105" rx="32" ry="32.5"/>
<text text-anchor="middle" x="278" y="-99.9" font-family="Times,serif" font-size="14.00">id</text>
</g>
<!-- graph&#45;&gt;id -->
<g id="edge8" class="edge"><title>graph&#45;&gt;id</title>
<path fill="none" stroke="black" d="M639.235,-813.561C527.171,-793.488 157,-719.288 157,-615 157,-615 157,-615 157,-309 157,-238.648 210.892,-171.339 246.744,-134.345"/>
<polygon fill="black" stroke="black" points="249.546,-136.49 254.094,-126.921 244.571,-131.565 249.546,-136.49"/>
</g>
<!-- &quot;strict&quot; -->
<g id="node16" class="node"><title>&quot;strict&quot;</title>
<polygon fill="none" stroke="black" points="621,-735 557,-735 557,-699 621,-699 621,-735"/>
<text text-anchor="middle" x="589" y="-711.9" font-family="Times,serif" font-size="14.00">&quot;strict&quot;</text>
</g>
<!-- graph&#45;&gt;&quot;strict&quot; -->
<g id="edge2" class="edge"><title>graph&#45;&gt;&quot;strict&quot;</title>
<path fill="none" stroke="black" d="M650.73,-793.787C638.405,-778.455 622.689,-758.905 610.198,-743.369"/>
<polygon fill="black" stroke="black" points="612.627,-740.803 603.633,-735.202 607.171,-745.189 612.627,-740.803"/>
</g>
<!-- &quot;graph&quot; -->
<g id="node17" class="node"><title>&quot;graph&quot;</title>
<polygon fill="none" stroke="black" points="703,-735 639,-735 639,-699 703,-699 703,-735"/>
<text text-anchor="middle" x="671" y="-711.9" font-family="Times,serif" font-size="14.00">&quot;graph&quot;</text>
</g>
<!-- graph&#45;&gt;&quot;graph&quot; -->
<g id="edge4" class="edge"><title>graph&#45;&gt;&quot;graph&quot;</title>
<path fill="none" stroke="black" d="M671,-786.446C671,-773.146 671,-757.911 671,-745.106"/>
<polygon fill="black" stroke="black" points="674.5,-745.017 671,-735.017 667.5,-745.017 674.5,-745.017"/>
</g>
<!-- &quot;digraph&quot; -->
<g id="node18" class="node"><title>&quot;digraph&quot;</title>
<polygon fill="none" stroke="black" points="785,-735 721,-735 721,-699 785,-699 785,-735"/>
<text text-anchor="middle" x="753" y="-711.9" font-family="Times,serif" font-size="14.00">&quot;digraph&quot;</text>
</g>
<!-- graph&#45;&gt;&quot;digraph&quot; -->
<g id="edge6" class="edge"><title>graph&#45;&gt;&quot;digraph&quot;</title>
<path fill="none" stroke="black" d="M691.27,-793.787C703.595,-778.455 719.311,-758.905 731.802,-743.369"/>
<polygon fill="black" stroke="black" points="734.829,-745.189 738.367,-735.202 729.373,-740.803 734.829,-745.189"/>
</g>
<!-- { -->
<g id="node19" class="node"><title>{</title>
<polygon fill="none" stroke="black" points="867,-735 803,-735 803,-699 867,-699 867,-735"/>
<text text-anchor="middle" x="835" y="-711.9" font-family="Times,serif" font-size="14.00">{</text>
</g>
<!-- graph&#45;&gt;{ -->
<g id="edge10" class="edge"><title>graph&#45;&gt;{</title>
<path fill="none" stroke="black" d="M700.14,-804.41C725.587,-791.261 763.168,-770.844 794,-750 797.955,-747.326 802.004,-744.369 805.943,-741.356"/>
<polygon fill="black" stroke="black" points="808.116,-744.099 813.81,-735.164 803.787,-738.598 808.116,-744.099"/>
</g>
<!-- } -->
<g id="node20" class="node"><title>}</title>
<polygon fill="none" stroke="black" points="949,-735 885,-735 885,-699 949,-699 949,-735"/>
<text text-anchor="middle" x="917" y="-711.9" font-family="Times,serif" font-size="14.00">}</text>
</g>
<!-- graph&#45;&gt;} -->
<g id="edge14" class="edge"><title>graph&#45;&gt;}</title>
<path fill="none" stroke="black" d="M702.629,-812.046C744.158,-802.107 818.531,-781.485 876,-750 880.493,-747.539 884.984,-744.573 889.259,-741.441"/>
<polygon fill="black" stroke="black" points="891.408,-744.204 897.157,-735.305 887.113,-738.677 891.408,-744.204"/>
</g>
<!-- stmt_list&#45;&gt;stmt_list -->
<g id="edge20" class="edge"><title>stmt_list&#45;&gt;stmt_list</title>
<path fill="none" stroke="black" d="M515.238,-735.658C527.859,-737.962 539,-731.742 539,-717 539,-706.404 533.245,-700.211 525.321,-698.421"/>
<polygon fill="black" stroke="black" points="525.266,-694.92 515.238,-698.342 525.211,-701.92 525.266,-694.92"/>
</g>
<!-- stmt -->
<g id="node3" class="node"><title>stmt</title>
<ellipse fill="none" stroke="black" cx="409" cy="-615" rx="32" ry="32.5"/>
<text text-anchor="middle" x="409" y="-609.9" font-family="Times,serif" font-size="14.00">stmt</text>
</g>
<!-- stmt_list&#45;&gt;stmt -->
<g id="edge16" class="edge"><title>stmt_list&#45;&gt;stmt</title>
<path fill="none" stroke="black" d="M469.019,-691.524C458.806,-678.502 446.246,-662.489 435.26,-648.482"/>
<polygon fill="black" stroke="black" points="437.929,-646.213 429.004,-640.505 432.421,-650.533 437.929,-646.213"/>
</g>
<!-- ; -->
<g id="node21" class="node"><title>;</title>
<polygon fill="none" stroke="black" points="661,-633 597,-633 597,-597 661,-597 661,-633"/>
<text text-anchor="middle" x="629" y="-609.9" font-family="Times,serif" font-size="14.00">;</text>
</g>
<!-- stmt_list&#45;&gt;; -->
<g id="edge18" class="edge"><title>stmt_list&#45;&gt;;</title>
<path fill="none" stroke="black" d="M515.005,-698.054C537.782,-681.459 571.01,-657.25 595.721,-639.246"/>
<polygon fill="black" stroke="black" points="598.054,-641.877 604.075,-633.159 593.932,-636.219 598.054,-641.877"/>
</g>
<!-- node_stmt -->
<g id="node4" class="node"><title>node_stmt</title>
<ellipse fill="none" stroke="black" cx="321" cy="-513" rx="32" ry="32.5"/>
<text text-anchor="middle" x="321" y="-507.9" font-family="Times,serif" font-size="14.00">node_stmt</text>
</g>
<!-- stmt&#45;&gt;node_stmt -->
<g id="edge22" class="edge"><title>stmt&#45;&gt;node_stmt</title>
<path fill="none" stroke="black" d="M387.698,-590.309C376.024,-576.777 361.414,-559.844 348.847,-545.277"/>
<polygon fill="black" stroke="black" points="351.289,-542.749 342.106,-537.464 345.988,-547.322 351.289,-542.749"/>
</g>
<!-- edge_stmt -->
<g id="node5" class="node"><title>edge_stmt</title>
<ellipse fill="none" stroke="black" cx="409" cy="-513" rx="32" ry="32.5"/>
<text text-anchor="middle" x="409" y="-507.9" font-family="Times,serif" font-size="14.00">edge_stmt</text>
</g>
<!-- stmt&#45;&gt;edge_stmt -->
<g id="edge24" class="edge"><title>stmt&#45;&gt;edge_stmt</title>
<path fill="none" stroke="black" d="M409,-582.446C409,-573.981 409,-564.733 409,-555.826"/>
<polygon fill="black" stroke="black" points="412.5,-555.594 409,-545.594 405.5,-555.594 412.5,-555.594"/>
</g>
<!-- attr_stmt -->
<g id="node6" class="node"><title>attr_stmt</title>
<ellipse fill="none" stroke="black" cx="239" cy="-513" rx="32" ry="32.5"/>
<text text-anchor="middle" x="239" y="-507.9" font-family="Times,serif" font-size="14.00">attr_stmt</text>
</g>
<!-- stmt&#45;&gt;attr_stmt -->
<g id="edge26" class="edge"><title>stmt&#45;&gt;attr_stmt</title>
<path fill="none" stroke="black" d="M379.938,-601.397C353.198,-588.433 312.833,-567.72 280,-546 277.257,-544.185 274.474,-542.228 271.717,-540.205"/>
<polygon fill="black" stroke="black" points="273.666,-537.29 263.591,-534.012 269.423,-542.857 273.666,-537.29"/>
</g>
<!-- subgraph -->
<g id="node7" class="node"><title>subgraph</title>
<ellipse fill="none" stroke="black" cx="519" cy="-309" rx="32" ry="32.5"/>
<text text-anchor="middle" x="519" y="-303.9" font-family="Times,serif" font-size="14.00">subgraph</text>
</g>
<!-- stmt&#45;&gt;subgraph -->
<g id="edge28" class="edge"><title>stmt&#45;&gt;subgraph</title>
<path fill="none" stroke="black" d="M426.022,-587.399C433.58,-574.882 442.452,-559.819 450,-546 474.295,-501.518 486.114,-492.449 501,-444 510.227,-413.97 514.725,-378.748 516.917,-351.811"/>
<polygon fill="black" stroke="black" points="520.428,-351.785 517.674,-341.554 513.447,-351.269 520.428,-351.785"/>
</g>
<!-- attr_list -->
<g id="node8" class="node"><title>attr_list</title>
<ellipse fill="none" stroke="black" cx="239" cy="-411" rx="32" ry="32.5"/>
<text text-anchor="middle" x="239" y="-405.9" font-family="Times,serif" font-size="14.00">attr_list</text>
</g>
<!-- node_stmt&#45;&gt;attr_list -->
<g id="edge58" class="edge"><title>node_stmt&#45;&gt;attr_list</title>
<path fill="none" stroke="black" d="M300.73,-487.787C290.185,-474.669 277.156,-458.462 265.789,-444.323"/>
<polygon fill="black" stroke="black" points="268.314,-441.878 259.321,-436.277 262.858,-446.264 268.314,-441.878"/>
</g>
<!-- node_id -->
<g id="node11" class="node"><title>node_id</title>
<ellipse fill="none" stroke="black" cx="355" cy="-309" rx="32" ry="32.5"/>
<text text-anchor="middle" x="355" y="-303.9" font-family="Times,serif" font-size="14.00">node_id</text>
</g>
<!-- node_stmt&#45;&gt;node_id -->
<g id="edge56" class="edge"><title>node_stmt&#45;&gt;node_id</title>
<path fill="none" stroke="black" d="M325.289,-480.736C329.049,-453.338 334.86,-413.006 341,-378 342.55,-369.165 344.361,-359.726 346.157,-350.754"/>
<polygon fill="black" stroke="black" points="349.602,-351.378 348.164,-340.881 342.742,-349.984 349.602,-351.378"/>
</g>
<!-- edge_stmt&#45;&gt;subgraph -->
<g id="edge42" class="edge"><title>edge_stmt&#45;&gt;subgraph</title>
<path fill="none" stroke="black" d="M433.713,-491.763C447.197,-479.063 463.278,-461.941 474,-444 491.326,-415.008 502.98,-378.481 510.079,-350.735"/>
<polygon fill="black" stroke="black" points="513.498,-351.487 512.491,-340.94 506.701,-349.813 513.498,-351.487"/>
</g>
<!-- edge_stmt&#45;&gt;attr_list -->
<g id="edge46" class="edge"><title>edge_stmt&#45;&gt;attr_list</title>
<path fill="none" stroke="black" d="M382.967,-494.023C376.228,-489.305 368.919,-484.354 362,-480 334.07,-462.423 301.455,-444.228 276.83,-430.938"/>
<polygon fill="black" stroke="black" points="278.277,-427.742 267.81,-426.096 274.966,-433.91 278.277,-427.742"/>
</g>
<!-- edge_stmt&#45;&gt;node_id -->
<g id="edge40" class="edge"><title>edge_stmt&#45;&gt;node_id</title>
<path fill="none" stroke="black" d="M392.157,-485.024C385.517,-472.817 378.432,-458.095 374,-444 364.568,-414.001 359.809,-378.778 357.412,-351.833"/>
<polygon fill="black" stroke="black" points="360.877,-351.255 356.577,-341.572 353.9,-351.823 360.877,-351.255"/>
</g>
<!-- edgeRHS -->
<g id="node12" class="node"><title>edgeRHS</title>
<ellipse fill="none" stroke="black" cx="415" cy="-411" rx="32" ry="32.5"/>
<text text-anchor="middle" x="415" y="-405.9" font-family="Times,serif" font-size="14.00">edgeRHS</text>
</g>
<!-- edge_stmt&#45;&gt;edgeRHS -->
<g id="edge44" class="edge"><title>edge_stmt&#45;&gt;edgeRHS</title>
<path fill="none" stroke="black" d="M410.915,-480.446C411.413,-471.981 411.957,-462.733 412.481,-453.826"/>
<polygon fill="black" stroke="black" points="415.989,-453.783 413.083,-443.594 409.001,-453.372 415.989,-453.783"/>
</g>
<!-- attr_stmt&#45;&gt;attr_list -->
<g id="edge30" class="edge"><title>attr_stmt&#45;&gt;attr_list</title>
<path fill="none" stroke="black" d="M239,-480.446C239,-471.981 239,-462.733 239,-453.826"/>
<polygon fill="black" stroke="black" points="242.5,-453.594 239,-443.594 235.5,-453.594 242.5,-453.594"/>
</g>
<!-- subgraph&#45;&gt;stmt_list -->
<g id="edge70" class="edge"><title>subgraph&#45;&gt;stmt_list</title>
<path fill="none" stroke="black" d="M520.14,-341.638C520.49,-353.13 520.828,-366.137 521,-378 521.425,-407.33 522.71,-414.717 521,-444 516.213,-525.954 503.409,-621.044 495.525,-674.606"/>
<polygon fill="black" stroke="black" points="492.026,-674.343 494.017,-684.749 498.95,-675.372 492.026,-674.343"/>
</g>
<!-- subgraph&#45;&gt;id -->
<g id="edge68" class="edge"><title>subgraph&#45;&gt;id</title>
<path fill="none" stroke="black" d="M499.999,-282.512C477.756,-252.99 438.513,-205.298 396,-174 365.577,-151.603 351.057,-157.988 319,-138 316.209,-136.26 313.392,-134.356 310.611,-132.37"/>
<polygon fill="black" stroke="black" points="312.543,-129.443 302.443,-126.243 308.342,-135.043 312.543,-129.443"/>
</g>
<!-- attr_list&#45;&gt;attr_list -->
<g id="edge34" class="edge"><title>attr_list&#45;&gt;attr_list</title>
<path fill="none" stroke="black" d="M265.238,-429.658C277.859,-431.962 289,-425.742 289,-411 289,-400.404 283.245,-394.211 275.321,-392.421"/>
<polygon fill="black" stroke="black" points="275.266,-388.92 265.238,-392.342 275.211,-395.92 275.266,-388.92"/>
</g>
<!-- a_list -->
<g id="node9" class="node"><title>a_list</title>
<ellipse fill="none" stroke="black" cx="255" cy="-309" rx="32" ry="32.5"/>
<text text-anchor="middle" x="255" y="-303.9" font-family="Times,serif" font-size="14.00">a_list</text>
</g>
<!-- attr_list&#45;&gt;a_list -->
<g id="edge32" class="edge"><title>attr_list&#45;&gt;a_list</title>
<path fill="none" stroke="black" d="M244.062,-378.727C245.419,-370.076 246.907,-360.59 248.337,-351.478"/>
<polygon fill="black" stroke="black" points="251.823,-351.835 249.916,-341.414 244.908,-350.75 251.823,-351.835"/>
</g>
<!-- attr_list&#45;&gt;id -->
<g id="edge36" class="edge"><title>attr_list&#45;&gt;id</title>
<path fill="none" stroke="black" d="M225.715,-381.394C221.023,-369.418 216.336,-355.302 214,-342 208.927,-313.109 208.775,-304.864 214,-276 222.592,-228.529 243.588,-177.064 259.202,-143.133"/>
<polygon fill="black" stroke="black" points="262.386,-144.586 263.449,-134.045 256.045,-141.623 262.386,-144.586"/>
</g>
<!-- a_list&#45;&gt;a_list -->
<g id="edge38" class="edge"><title>a_list&#45;&gt;a_list</title>
<path fill="none" stroke="black" d="M281.238,-327.658C293.859,-329.962 305,-323.742 305,-309 305,-298.404 299.245,-292.211 291.321,-290.421"/>
<polygon fill="black" stroke="black" points="291.266,-286.92 281.238,-290.342 291.211,-293.92 291.266,-286.92"/>
</g>
<!-- node_id&#45;&gt;id -->
<g id="edge60" class="edge"><title>node_id&#45;&gt;id</title>
<path fill="none" stroke="black" d="M336.631,-282.049C328.812,-269.657 320.108,-254.513 314,-240 301.359,-209.966 292.072,-174.278 286.099,-147.141"/>
<polygon fill="black" stroke="black" points="289.485,-146.236 283.972,-137.188 282.64,-147.699 289.485,-146.236"/>
</g>
<!-- port -->
<g id="node13" class="node"><title>port</title>
<ellipse fill="none" stroke="black" cx="355" cy="-207" rx="32" ry="32.5"/>
<text text-anchor="middle" x="355" y="-201.9" font-family="Times,serif" font-size="14.00">port</text>
</g>
<!-- node_id&#45;&gt;port -->
<g id="edge62" class="edge"><title>node_id&#45;&gt;port</title>
<path fill="none" stroke="black" d="M355,-276.446C355,-267.981 355,-258.733 355,-249.826"/>
<polygon fill="black" stroke="black" points="358.5,-249.594 355,-239.594 351.5,-249.594 358.5,-249.594"/>
</g>
<!-- edgeRHS&#45;&gt;subgraph -->
<g id="edge52" class="edge"><title>edgeRHS&#45;&gt;subgraph</title>
<path fill="none" stroke="black" d="M438.081,-388.363C452.789,-373.938 472.023,-355.073 488.049,-339.356"/>
<polygon fill="black" stroke="black" points="490.935,-341.427 495.624,-331.927 486.034,-336.43 490.935,-341.427"/>
</g>
<!-- edgeRHS&#45;&gt;node_id -->
<g id="edge50" class="edge"><title>edgeRHS&#45;&gt;node_id</title>
<path fill="none" stroke="black" d="M398.446,-382.858C391.691,-371.375 383.79,-357.943 376.591,-345.705"/>
<polygon fill="black" stroke="black" points="379.587,-343.895 371.5,-337.05 373.554,-347.444 379.587,-343.895"/>
</g>
<!-- edgeRHS&#45;&gt;edgeRHS -->
<g id="edge54" class="edge"><title>edgeRHS&#45;&gt;edgeRHS</title>
<path fill="none" stroke="black" d="M441.238,-429.658C453.859,-431.962 465,-425.742 465,-411 465,-400.404 459.245,-394.211 451.321,-392.421"/>
<polygon fill="black" stroke="black" points="451.266,-388.92 441.238,-392.342 451.211,-395.92 451.266,-388.92"/>
</g>
<!-- edge_op -->
<g id="node14" class="node"><title>edge_op</title>
<ellipse fill="none" stroke="black" cx="437" cy="-309" rx="32" ry="32.5"/>
<text text-anchor="middle" x="437" y="-303.9" font-family="Times,serif" font-size="14.00">edge_op</text>
</g>
<!-- edgeRHS&#45;&gt;edge_op -->
<g id="edge48" class="edge"><title>edgeRHS&#45;&gt;edge_op</title>
<path fill="none" stroke="black" d="M421.901,-379.006C423.825,-370.082 425.946,-360.252 427.973,-350.85"/>
<polygon fill="black" stroke="black" points="431.437,-351.393 430.124,-340.88 424.594,-349.917 431.437,-351.393"/>
</g>
<!-- port&#45;&gt;id -->
<g id="edge64" class="edge"><title>port&#45;&gt;id</title>
<path fill="none" stroke="black" d="M335.37,-180.997C325.777,-168.289 314.106,-152.829 303.802,-139.179"/>
<polygon fill="black" stroke="black" points="306.412,-136.828 297.594,-130.955 300.825,-141.045 306.412,-136.828"/>
</g>
<!-- compass_pt -->
<g id="node15" class="node"><title>compass_pt</title>
<ellipse fill="none" stroke="black" cx="360" cy="-105" rx="32" ry="32.5"/>
<text text-anchor="middle" x="360" y="-99.9" font-family="Times,serif" font-size="14.00">compass_pt</text>
</g>
<!-- port&#45;&gt;compass_pt -->
<g id="edge66" class="edge"><title>port&#45;&gt;compass_pt</title>
<path fill="none" stroke="black" d="M356.596,-174.446C357.011,-165.981 357.464,-156.733 357.901,-147.826"/>
<polygon fill="black" stroke="black" points="361.408,-147.754 358.402,-137.594 354.417,-147.411 361.408,-147.754"/>
</g>
<!-- n -->
<g id="node22" class="node"><title>n</title>
<polygon fill="none" stroke="black" points="64,-36 2.4869e-14,-36 0,-1.77636e-14 64,-3.55271e-15 64,-36"/>
<text text-anchor="middle" x="32" y="-12.9" font-family="Times,serif" font-size="14.00">n</text>
</g>
<!-- compass_pt&#45;&gt;n -->
<g id="edge72" class="edge"><title>compass_pt&#45;&gt;n</title>
<path fill="none" stroke="black" d="M336.25,-82.441C330.911,-78.3931 325.03,-74.6315 319,-72 220.694,-29.0965 181.521,-64.2882 74.2803,-35.9028"/>
<polygon fill="black" stroke="black" points="74.9528,-32.4571 64.381,-33.155 73.0806,-39.2021 74.9528,-32.4571"/>
</g>
<!-- ne -->
<g id="node23" class="node"><title>ne</title>
<polygon fill="none" stroke="black" points="146,-36 82,-36 82,-1.77636e-14 146,-3.55271e-15 146,-36"/>
<text text-anchor="middle" x="114" y="-12.9" font-family="Times,serif" font-size="14.00">ne</text>
</g>
<!-- compass_pt&#45;&gt;ne -->
<g id="edge74" class="edge"><title>compass_pt&#45;&gt;ne</title>
<path fill="none" stroke="black" d="M336.1,-82.7691C330.772,-78.6974 324.933,-74.8432 319,-72 254.596,-41.1354 228.245,-57.5432 156.406,-36.0671"/>
<polygon fill="black" stroke="black" points="157.037,-32.5965 146.448,-32.9376 154.938,-39.2746 157.037,-32.5965"/>
</g>
<!-- e -->
<g id="node24" class="node"><title>e</title>
<polygon fill="none" stroke="black" points="228,-36 164,-36 164,-1.77636e-14 228,-3.55271e-15 228,-36"/>
<text text-anchor="middle" x="196" y="-12.9" font-family="Times,serif" font-size="14.00">e</text>
</g>
<!-- compass_pt&#45;&gt;e -->
<g id="edge76" class="edge"><title>compass_pt&#45;&gt;e</title>
<path fill="none" stroke="black" d="M335.62,-83.6546C330.327,-79.5187 324.623,-75.4145 319,-72 318.878,-71.9262 273.199,-51.8761 237.549,-36.2317"/>
<polygon fill="black" stroke="black" points="238.836,-32.9741 228.272,-32.1607 236.023,-39.3841 238.836,-32.9741"/>
</g>
<!-- se -->
<g id="node25" class="node"><title>se</title>
<polygon fill="none" stroke="black" points="310,-36 246,-36 246,-1.77636e-14 310,-3.55271e-15 310,-36"/>
<text text-anchor="middle" x="278" y="-12.9" font-family="Times,serif" font-size="14.00">se</text>
</g>
<!-- compass_pt&#45;&gt;se -->
<g id="edge78" class="edge"><title>compass_pt&#45;&gt;se</title>
<path fill="none" stroke="black" d="M337.593,-81.2269C326.624,-69.5886 313.402,-55.5601 302.201,-43.6771"/>
<polygon fill="black" stroke="black" points="304.583,-41.1013 295.177,-36.2248 299.489,-45.9025 304.583,-41.1013"/>
</g>
<!-- s -->
<g id="node26" class="node"><title>s</title>
<polygon fill="none" stroke="black" points="392,-36 328,-36 328,-1.77636e-14 392,-3.55271e-15 392,-36"/>
<text text-anchor="middle" x="360" y="-12.9" font-family="Times,serif" font-size="14.00">s</text>
</g>
<!-- compass_pt&#45;&gt;s -->
<g id="edge80" class="edge"><title>compass_pt&#45;&gt;s</title>
<path fill="none" stroke="black" d="M360,-72.109C360,-63.6777 360,-54.6801 360,-46.4912"/>
<polygon fill="black" stroke="black" points="363.5,-46.3076 360,-36.3077 356.5,-46.3077 363.5,-46.3076"/>
</g>
<!-- sw -->
<g id="node27" class="node"><title>sw</title>
<polygon fill="none" stroke="black" points="474,-36 410,-36 410,-1.77636e-14 474,-3.55271e-15 474,-36"/>
<text text-anchor="middle" x="442" y="-12.9" font-family="Times,serif" font-size="14.00">sw</text>
</g>
<!-- compass_pt&#45;&gt;sw -->
<g id="edge82" class="edge"><title>compass_pt&#45;&gt;sw</title>
<path fill="none" stroke="black" d="M382.407,-81.2269C393.376,-69.5886 406.598,-55.5601 417.799,-43.6771"/>
<polygon fill="black" stroke="black" points="420.511,-45.9025 424.823,-36.2248 415.417,-41.1013 420.511,-45.9025"/>
</g>
<!-- w -->
<g id="node28" class="node"><title>w</title>
<polygon fill="none" stroke="black" points="556,-36 492,-36 492,-1.77636e-14 556,-3.55271e-15 556,-36"/>
<text text-anchor="middle" x="524" y="-12.9" font-family="Times,serif" font-size="14.00">w</text>
</g>
<!-- compass_pt&#45;&gt;w -->
<g id="edge84" class="edge"><title>compass_pt&#45;&gt;w</title>
<path fill="none" stroke="black" d="M388.567,-89.8458C414.569,-76.0519 453.268,-55.5227 482.648,-39.937"/>
<polygon fill="black" stroke="black" points="484.637,-42.8434 491.831,-35.0652 481.357,-36.6596 484.637,-42.8434"/>
</g>
<!-- nw -->
<g id="node29" class="node"><title>nw</title>
<polygon fill="none" stroke="black" points="638,-36 574,-36 574,-1.77636e-14 638,-3.55271e-15 638,-36"/>
<text text-anchor="middle" x="606" y="-12.9" font-family="Times,serif" font-size="14.00">nw</text>
</g>
<!-- compass_pt&#45;&gt;nw -->
<g id="edge86" class="edge"><title>compass_pt&#45;&gt;nw</title>
<path fill="none" stroke="black" d="M390.868,-95.5545C429.442,-83.546 497.586,-61.6591 564.459,-36.0588"/>
<polygon fill="black" stroke="black" points="565.814,-39.2877 573.884,-32.4225 563.294,-32.7569 565.814,-39.2877"/>
</g>
<!-- c -->
<g id="node30" class="node"><title>c</title>
<polygon fill="none" stroke="black" points="720,-36 656,-36 656,-1.77636e-14 720,-3.55271e-15 720,-36"/>
<text text-anchor="middle" x="688" y="-12.9" font-family="Times,serif" font-size="14.00">c</text>
</g>
<!-- compass_pt&#45;&gt;c -->
<g id="edge88" class="edge"><title>compass_pt&#45;&gt;c</title>
<path fill="none" stroke="black" d="M391.517,-99.3294C443.183,-89.6264 549.069,-68.0339 646.302,-35.9405"/>
<polygon fill="black" stroke="black" points="647.612,-39.1928 655.984,-32.6996 645.39,-32.5548 647.612,-39.1928"/>
</g>
</g>
</svg>
