<?xml version="1.0" encoding="UTF-8" standalone="no"?>
<!DOCTYPE svg PUBLIC "-//W3C//DTD SVG 1.1//EN"
 "http://www.w3.org/Graphics/SVG/1.1/DTD/svg11.dtd">
<!-- Generated by graphviz version 2.26.3 (20100126.1600)
 -->
<!-- Title: Foo Pages: 1 -->
<svg width="274pt" height="248pt"
 viewBox="0.00 0.00 274.00 248.00" xmlns="http://www.w3.org/2000/svg" xmlns:xlink="http://www.w3.org/1999/xlink">
<g id="graph1" class="graph" transform="scale(1 1) rotate(0) translate(4 244)">
<title>Foo</title>
<polygon fill="white" stroke="white" points="-4,5 -4,-244 271,-244 271,5 -4,5"/>
<!-- marko -->
<g id="node1" class="node"><title>marko</title>
<ellipse fill="none" stroke="black" cx="114" cy="-207" rx="32" ry="32.5"/>
<text text-anchor="middle" x="114" y="-201.9" font-family="Times,serif" font-size="14.00">marko</text>
</g>
<!-- vadas -->
<g id="node2" class="node"><title>vadas</title>
<ellipse fill="none" stroke="black" cx="32" cy="-105" rx="32" ry="32.5"/>
<text text-anchor="middle" x="32" y="-99.9" font-family="Times,serif" font-size="14.00">vadas</text>
</g>
<!-- marko&#45;&gt;vadas -->
<g id="edge2" class="edge"><title>marko&#45;&gt;vadas</title>
<path fill="none" stroke="black" d="M93.7303,-181.787C83.1845,-168.669 70.1556,-152.462 58.7894,-138.323"/>
<polygon fill="black" stroke="black" points="61.3141,-135.878 52.3207,-130.277 55.8585,-140.264 61.3141,-135.878"/>
</g>
<!-- josh -->
<g id="node3" class="node"><title>josh</title>
<ellipse fill="none" stroke="black" cx="114" cy="-105" rx="32" ry="32.5"/>
<text text-anchor="middle" x="114" y="-99.9" font-family="Times,serif" font-size="14.00">josh</text>
</g>
<!-- marko&#45;&gt;josh -->
<g id="edge4" class="edge"><title>marko&#45;&gt;josh</title>
<path fill="none" stroke="black" d="M114,-174.446C114,-165.981 114,-156.733 114,-147.826"/>
<polygon fill="black" stroke="black" points="117.5,-147.594 114,-137.594 110.5,-147.594 117.5,-147.594"/>
</g>
<!-- lop -->
<g id="node6" class="node"><title>lop</title>
<polygon fill="none" stroke="black" points="225,-36 153,-36 153,-1.77636e-14 225,-3.55271e-15 225,-36"/>
<text text-anchor="middle" x="189" y="-12.9" font-family="Times,serif" font-size="14.00">lop</text>
</g>
<!-- marko&#45;&gt;lop -->
<g id="edge6" class="edge"><title>marko&#45;&gt;lop</title>
<path fill="none" stroke="black" d="M132.264,-180.004C140.062,-167.604 148.78,-152.465 155,-138 168.024,-107.714 177.582,-71.008 183.191,-46.2302"/>
<polygon fill="black" stroke="black" points="186.624,-46.913 185.351,-36.395 179.787,-45.4112 186.624,-46.913"/>
</g>
<!-- ripple -->
<g id="node5" class="node"><title>ripple</title>
<polygon fill="none" stroke="black" points="135,-36 63,-36 63,-1.77636e-14 135,-3.55271e-15 135,-36"/>
<text text-anchor="middle" x="99" y="-12.9" font-family="Times,serif" font-size="14.00">ripple</text>
</g>
<!-- josh&#45;&gt;ripple -->
<g id="edge8" class="edge"><title>josh&#45;&gt;ripple</title>
<path fill="none" stroke="black" d="M108.415,-72.6044C106.915,-63.9084 105.307,-54.5779 103.851,-46.1338"/>
<polygon fill="black" stroke="black" points="107.256,-45.2864 102.108,-36.0265 100.358,-46.4758 107.256,-45.2864"/>
</g>
<!-- josh&#45;&gt;lop -->
<g id="edge10" class="edge"><title>josh&#45;&gt;lop</title>
<path fill="none" stroke="black" d="M135.291,-80.302C145.144,-68.8732 156.845,-55.3003 166.806,-43.7452"/>
<polygon fill="black" stroke="black" points="169.502,-45.9784 173.38,-36.1189 164.2,-41.4078 169.502,-45.9784"/>
</g>
<!-- peter -->
<g id="node4" class="node"><title>peter</title>
<ellipse fill="none" stroke="black" cx="234" cy="-105" rx="32" ry="32.5"/>
<text text-anchor="middle" x="234" y="-99.9" font-family="Times,serif" font-size="14.00">peter</text>
</g>
<!-- peter&#45;&gt;lop -->
<g id="edge12" class="edge"><title>peter&#45;&gt;lop</title>
<path fill="none" stroke="black" d="M219.016,-76.0303C213.862,-66.0662 208.114,-54.953 203.038,-45.1399"/>
<polygon fill="black" stroke="black" points="206.122,-43.4841 198.419,-36.2099 199.904,-46.7001 206.122,-43.4841"/>
</g>
</g>
</svg>
